<svg width="235" height="234" viewBox="0 0 235 234" fill="none" xmlns="http://www.w3.org/2000/svg">
    <g style="mix-blend-mode:overlay" opacity="0.25">
        <path
            d="M117.5 0C52.64 0 0 52.416 0 117C0 181.584 52.64 234 117.5 234C182.36 234 235 181.584 235 117C235 52.416 182.36 0 117.5 0ZM172.02 79.56C170.257 98.046 162.62 142.974 158.743 163.683C157.098 172.458 153.807 175.383 150.753 175.734C143.938 176.319 138.768 171.288 132.188 166.959C121.848 160.173 115.973 155.961 105.985 149.409C94.3525 141.804 101.872 137.592 108.57 130.806C110.332 129.051 140.413 101.79 141 99.333C141.082 98.9609 141.071 98.5745 140.968 98.2075C140.866 97.8405 140.675 97.5039 140.412 97.227C139.708 96.642 138.768 96.876 137.945 96.993C136.887 97.227 120.438 108.108 88.36 129.636C83.66 132.795 79.43 134.433 75.67 134.316C71.44 134.199 63.45 131.976 57.4575 129.987C50.055 127.647 44.2975 126.36 44.7675 122.265C45.0025 120.159 47.94 118.053 53.4625 115.83C87.7725 100.971 110.567 91.143 121.965 86.463C154.63 72.891 161.328 70.551 165.793 70.551C166.733 70.551 168.965 70.785 170.375 71.955C171.55 72.891 171.902 74.178 172.02 75.114C171.902 75.816 172.137 77.922 172.02 79.56Z"
            fill="#190F35" />
    </g>
</svg>