<svg width="269" height="269" viewBox="0 0 269 269" fill="none" xmlns="http://www.w3.org/2000/svg">
    <g style="mix-blend-mode:overlay" opacity="0.25">
        <path
            d="M18.7843 50.9578C5.26249 69.896 9.48994 95.9918 17.9573 148.26L19.4537 157.498C27.9086 209.689 32.1361 235.785 50.9578 249.563C69.896 263.084 95.9918 258.857 148.26 250.39L157.498 248.893C209.689 240.438 235.785 236.211 249.563 217.389C263.084 198.451 258.857 172.355 250.389 120.087L248.893 110.849C240.438 58.6577 236.211 32.5619 217.389 18.7843C198.451 5.26249 172.355 9.48994 120.087 17.9573L110.849 19.4537C58.6577 27.9086 32.5619 32.1361 18.7843 50.9578ZM50.3366 101.383L76.8172 97.0927C84.797 140.987 107.213 156.474 123.233 157.828L112.458 91.3189L137.322 87.291L143.47 125.241C158.373 121.168 171.579 101.254 173.875 81.2906L198.662 77.2752C198.242 87.485 195.722 97.4985 191.257 106.69C186.792 115.882 180.48 124.053 172.714 130.695C183.104 133.921 192.692 139.314 200.845 146.518C208.997 153.722 215.53 162.572 220.011 172.486L192.683 176.913C183.877 159.617 166.957 147.822 147.324 149.028L152.885 183.36L149.806 183.859C97.1529 192.389 61.2951 161.226 50.3366 101.383Z"
            fill="#190F35" />
    </g>
</svg>
    