<svg width="30" height="30" viewBox="0 0 30 30" fill="none" xmlns="http://www.w3.org/2000/svg">
<path fill-rule="evenodd" clip-rule="evenodd" d="M10.895 0.505415C11.0483 0.658676 11.1526 0.854036 11.1947 1.06669C11.2367 1.27935 11.2147 1.49971 11.1312 1.69979C10.4645 3.29989 10.1225 5.01655 10.125 6.75C10.125 10.231 11.5078 13.5694 13.9692 16.0308C16.4306 18.4922 19.769 19.875 23.25 19.875C24.9834 19.8775 26.7001 19.5355 28.3002 18.8687C28.5001 18.7855 28.7203 18.7634 28.9328 18.8054C29.1453 18.8474 29.3405 18.9516 29.4937 19.1046C29.647 19.2577 29.7513 19.4528 29.7935 19.6653C29.8357 19.8777 29.8139 20.0979 29.7308 20.2979C28.5671 23.0881 26.6038 25.4715 24.0881 27.1479C21.5724 28.8243 18.6169 29.7188 15.5937 29.7187C7.13688 29.7187 0.28125 22.8646 0.28125 14.4062C0.28125 8.03625 4.17062 2.57625 9.70208 0.269165C9.90198 0.186069 10.122 0.164162 10.3344 0.206218C10.5468 0.248274 10.7419 0.352402 10.895 0.505415Z" fill="#2F136D"/>
</svg>
